<svg width="55" height="38" viewBox="0 0 55 38" fill="none" xmlns="http://www.w3.org/2000/svg">
<g clip-path="url(#clip0)">
<path d="M15.7224 13.239C14.4096 12.8933 13.0996 12.549 11.7882 12.2047C11.7882 12.1858 11.7882 12.1669 11.7882 12.148C13.0682 11.8488 14.3496 11.5509 15.6296 11.2517C15.631 11.24 15.6324 11.227 15.6339 11.2153C14.4782 10.8812 13.3225 10.5456 12.1668 10.2115C12.1654 10.1941 12.1625 10.1781 12.1611 10.1606C12.9196 9.79454 13.6782 9.42699 14.4367 9.06089C14.4439 9.07397 14.4525 9.08704 14.4596 9.10012C13.9168 9.42844 13.3739 9.75822 12.7868 10.1127C14.1739 10.4919 15.5181 10.8594 16.861 11.2255C16.861 11.2444 16.8624 11.2647 16.8624 11.2836C15.6881 11.5771 14.5139 11.8691 13.3382 12.1625C13.3382 12.1756 13.3368 12.1887 13.3368 12.2003C13.4825 12.2381 13.6282 12.2759 13.7739 12.3122C14.7396 12.5504 15.7053 12.7887 16.6695 13.0299C16.7253 13.0444 16.8167 13.0299 16.8253 13.1068C16.8324 13.1679 16.7481 13.1838 16.701 13.2114C16.1253 13.5558 15.5496 13.9015 14.9682 14.2371C14.8453 14.3083 14.8053 14.3896 14.8082 14.5277C14.8496 16.4017 14.821 18.2772 14.8524 20.1513C14.8782 21.7247 14.851 23.298 14.8853 24.8699C14.9196 26.4781 14.8853 28.0863 14.921 29.6931C14.9482 30.9701 14.9367 32.247 14.9453 33.524C14.9467 33.6911 14.9924 33.7507 15.1596 33.7405C15.3696 33.7274 15.5824 33.7289 15.7938 33.7405C15.9496 33.7492 16.0038 33.6969 15.9996 33.5342C15.9838 32.908 15.9824 32.2805 15.9696 31.6543C15.9381 30.081 16.1338 28.5309 16.3838 26.9822C16.561 25.8897 17.1852 25.1227 18.0224 24.4907C18.4324 24.1813 18.8766 23.93 19.3509 23.7367C20.1452 23.4128 20.858 22.9581 21.4937 22.3813C22.4422 21.5198 23.2637 20.5523 23.8251 19.3799C24.2722 18.4458 24.5079 17.4506 24.6379 16.425C24.7065 15.8831 24.7322 15.3397 24.7136 14.795C24.675 13.6269 24.4108 12.5098 23.9851 11.4289C23.5094 10.2187 22.8337 9.13644 21.9508 8.18923C21.068 7.24058 19.9995 6.57376 18.8195 6.07691C17.3338 5.45368 15.7881 5.16022 14.1825 5.26336C12.1739 5.39121 10.3797 6.10887 8.79832 7.37133C7.96691 8.03524 7.23979 8.8023 6.6398 9.68994C5.94553 10.717 5.54412 11.8633 5.31412 13.0792C5.18841 13.7475 5.11556 14.4216 5.11127 15.1015C5.10984 15.2424 5.0627 15.3049 4.92699 15.3078C4.80128 15.3107 4.67557 15.3121 4.54986 15.3223C4.417 15.3325 4.36986 15.2773 4.36843 15.1422C4.36415 14.6831 4.39272 14.2255 4.44843 13.7708C4.58271 12.6826 4.84271 11.6279 5.27698 10.6212C5.65983 9.73498 6.18696 8.94467 6.81837 8.22701C7.85691 7.05027 9.06545 6.10161 10.4854 5.4406C11.5225 4.95828 12.6068 4.6532 13.7439 4.54425C16.3767 4.29146 18.7938 4.94521 20.9937 6.39943C22.6094 7.46721 23.7279 8.98099 24.5151 10.7534C25.0036 11.8517 25.3322 13.0022 25.4236 14.2022C25.6007 16.5499 25.2022 18.777 23.8922 20.7644C23.0808 21.9963 22.0665 23.0365 20.8237 23.8326C20.3666 24.1246 19.868 24.3266 19.3809 24.5561C18.7038 24.8757 18.1124 25.3086 17.6352 25.9014C17.2795 26.3444 17.1524 26.8631 17.0738 27.4093C16.9395 28.3391 16.7824 29.266 16.7424 30.2059C16.7195 30.7216 16.7295 31.2388 16.7295 31.756C16.731 32.5855 16.7224 33.4165 16.7581 34.246C16.7681 34.4843 16.7581 34.4872 16.5195 34.4872C16.0567 34.4872 15.5939 34.4916 15.131 34.4858C14.9924 34.4843 14.9324 34.5264 14.9396 34.6746C14.9482 34.8664 14.9496 35.0581 14.9396 35.2485C14.931 35.4112 14.9967 35.4591 15.151 35.4577C15.911 35.4518 16.671 35.4547 17.4309 35.4547C17.6838 35.4547 17.6867 35.4562 17.6838 35.7191C17.6781 36.2625 17.7567 36.1855 17.2195 36.1855C15.391 36.1884 13.5625 36.1869 11.734 36.1869C11.4797 36.1869 11.4782 36.1855 11.4797 35.9225C11.4825 35.3952 11.4211 35.4577 11.9339 35.4547C12.6254 35.4518 13.3168 35.4504 14.0082 35.4577C14.1739 35.4591 14.2325 35.401 14.2239 35.2354C14.2139 35.0509 14.2153 34.8635 14.2225 34.679C14.2282 34.5366 14.1782 34.4828 14.0353 34.4858C13.6468 34.493 13.2582 34.4814 12.8696 34.4916C12.7096 34.4959 12.6654 34.4364 12.6654 34.2795C12.6654 33.739 12.6611 33.739 13.1968 33.739C13.4653 33.739 13.7339 33.7303 14.0025 33.7419C14.1653 33.7492 14.2196 33.6969 14.2182 33.5269C14.2125 32.7439 14.2067 31.9594 14.2253 31.1763C14.2653 29.4984 14.2267 27.8205 14.2625 26.144C14.2939 24.6171 14.2625 23.0903 14.2953 21.5649C14.331 19.8985 14.2982 18.2322 14.3325 16.5673C14.3482 15.8017 14.3467 15.0347 14.3496 14.2691C14.3496 14.1122 14.4053 14.0264 14.5353 13.9538C14.8967 13.7548 15.2524 13.5456 15.611 13.3393C15.6481 13.319 15.6981 13.3102 15.7224 13.239Z" fill="white"/>
<path d="M4.22759 7.44839C3.70189 7.44839 3.17619 7.45129 2.65049 7.44548C2.52192 7.44403 2.44049 7.48616 2.37192 7.59948C1.64766 8.78348 1.16481 10.0706 0.793394 11.4057C0.754823 11.5423 0.771966 11.6411 0.87482 11.7471C1.29767 12.1859 1.71194 12.6348 2.1305 13.0793C2.41478 13.3815 2.69906 13.6822 2.98619 13.9815C3.04905 14.0483 3.08476 14.118 3.08476 14.2125C3.08191 14.503 3.07905 14.7936 3.08333 15.0827C3.08619 15.228 3.01619 15.2773 2.8862 15.2817C2.77191 15.2861 2.65763 15.2948 2.54478 15.3108C2.40907 15.3296 2.35621 15.2744 2.35907 15.1379C2.36335 14.9345 2.35621 14.7311 2.36192 14.5277C2.36478 14.4159 2.32907 14.3301 2.25193 14.2488C1.54766 13.5122 0.849106 12.7699 0.140553 12.0377C0.0176994 11.9113 -0.0180139 11.7878 0.0134138 11.6178C0.150553 10.8784 0.41626 10.1796 0.663397 9.47354C0.986246 8.54668 1.47195 7.69972 1.96765 6.85711C2.03765 6.73799 2.1305 6.71474 2.25336 6.7162C3.2819 6.7191 4.31045 6.71474 5.33899 6.72055C5.49184 6.72201 5.5947 6.67697 5.68327 6.54767C5.89469 6.24114 6.16754 5.99127 6.45325 5.76028C6.5761 5.66149 6.61467 5.55544 6.61467 5.40435C6.61039 4.39468 6.61753 3.38355 6.60896 2.37388C6.60753 2.17775 6.66753 2.05136 6.82895 1.94241C8.25463 0.989392 9.78602 0.308045 11.4745 0.00877494C11.626 -0.0173748 11.7331 0.014586 11.8403 0.126449C12.4417 0.74678 13.0659 1.34677 13.6445 1.98599C13.8873 2.25475 14.113 2.35354 14.4716 2.30705C14.8645 2.25475 15.2702 2.28381 15.6702 2.30124C15.8216 2.3085 15.9187 2.2533 16.0144 2.15596C16.673 1.48769 17.3372 0.822324 17.9901 0.149693C18.1172 0.0189443 18.2415 -0.0217331 18.4172 0.0116805C20.1172 0.326931 21.6771 0.983581 23.1071 1.96565C23.22 2.04265 23.2414 2.13708 23.24 2.26056C23.2371 3.24118 23.2414 4.22325 23.2357 5.20387C23.2342 5.36658 23.2842 5.47117 23.4157 5.56706C23.7857 5.83437 24.1014 6.16414 24.3871 6.51862C24.4914 6.64791 24.6128 6.67988 24.7613 6.67988C25.6927 6.67988 26.6242 6.68859 27.5556 6.67988C27.7584 6.67842 27.8798 6.7467 27.987 6.91522C28.7112 8.05419 29.2569 9.27742 29.6441 10.5718C29.7526 10.9321 29.8326 11.3011 29.9326 11.6643C29.9755 11.8198 29.9469 11.936 29.8312 12.0551C29.1584 12.7423 28.4941 13.4381 27.8241 14.1268C27.7327 14.2197 27.6927 14.3171 27.6913 14.4493C27.6841 14.9185 27.6541 15.3878 27.6598 15.8585C27.6613 15.9776 27.6941 16.0662 27.777 16.1519C28.4655 16.871 29.1498 17.596 29.8398 18.3136C29.9384 18.4168 29.9726 18.5141 29.9384 18.6565C29.6941 19.6996 29.3398 20.7034 28.917 21.6826C28.6484 22.3058 28.3398 22.9073 28.0084 23.4971C27.9341 23.6293 27.8441 23.6801 27.6927 23.6801C26.7042 23.6743 25.7156 23.6801 24.7271 23.6743C24.5842 23.6743 24.4799 23.7194 24.3799 23.8211C24.0171 24.1915 23.6599 24.5663 23.3328 24.9702C23.2585 25.0617 23.2 25.0806 23.1057 25.008C23.0057 24.931 22.9 24.8598 22.7928 24.7944C22.6728 24.7203 22.6557 24.6477 22.75 24.5315C23.1314 24.068 23.5528 23.6438 23.9571 23.2007C24.1528 22.9857 24.3585 22.9029 24.6456 22.9087C25.5142 22.9262 26.3827 22.9102 27.2513 22.9189C27.4241 22.9203 27.5284 22.8739 27.617 22.7097C28.2741 21.4792 28.7784 20.1877 29.1498 18.841C29.1798 18.7306 29.1469 18.655 29.0727 18.5766C28.5084 17.9838 27.947 17.3897 27.3856 16.7955C27.2599 16.6618 27.1384 16.5209 27.0127 16.3887C26.9513 16.3233 26.9384 16.2492 26.9399 16.165C26.9441 15.4749 26.9356 14.7834 26.9727 14.0933C26.977 14.0062 27.0099 13.9393 27.0684 13.8783C27.3713 13.5631 27.6713 13.2449 27.9741 12.9282C28.3398 12.5447 28.7041 12.1612 29.0741 11.7805C29.1555 11.6963 29.1798 11.6135 29.1512 11.4987C28.9441 10.6517 28.6627 9.83092 28.307 9.03481C28.0827 8.53215 27.8284 8.04548 27.547 7.57333C27.4756 7.45275 27.3927 7.40916 27.257 7.40916C26.3484 7.41207 25.4399 7.399 24.5314 7.41207C24.2642 7.41643 24.0885 7.32636 23.9271 7.10989C23.5985 6.66825 23.2257 6.26293 22.7443 5.99127C22.5671 5.89102 22.5128 5.78207 22.5157 5.58449C22.5257 4.60387 22.5171 3.6218 22.5228 2.64119C22.5243 2.49591 22.4771 2.41165 22.3543 2.3332C21.21 1.60536 19.9772 1.0998 18.6601 0.79908C18.4915 0.759855 18.3772 0.793269 18.2529 0.921112C17.5801 1.60827 16.8958 2.28381 16.2187 2.96515C16.1487 3.03634 16.0787 3.0683 15.9773 3.05813C15.2873 2.99421 14.5973 2.99421 13.9102 3.08719C13.7788 3.10462 13.6845 3.05377 13.5931 2.95934C12.9259 2.27364 12.2531 1.5952 11.5888 0.908037C11.486 0.801985 11.3917 0.76276 11.2431 0.794721C9.8903 1.08673 8.6489 1.64314 7.48036 2.38259C7.36751 2.45378 7.33465 2.5424 7.33465 2.67024C7.33751 3.69735 7.33465 4.72591 7.33894 5.75301C7.33894 5.90555 7.29751 6.01015 7.17323 6.10749C6.79752 6.4024 6.40325 6.69586 6.17468 7.12297C6.0204 7.41062 5.83326 7.46437 5.54898 7.44984C5.10757 7.43386 4.66758 7.44839 4.22759 7.44839Z" fill="white"/>
<path d="M48.4202 28.5991C48.4059 28.9028 48.3859 29.2064 48.3787 29.51C48.3444 31.0354 48.3344 32.5623 48.3373 34.0877C48.3373 34.4247 48.143 34.5962 47.8245 34.5511C47.6073 34.5206 47.4745 34.3753 47.4759 34.1516C47.4773 33.9657 47.4959 33.7812 47.503 33.5952C47.5402 32.4708 47.5702 31.3463 47.6159 30.2219C47.6702 28.8708 47.6316 27.5183 47.6445 26.1658C47.6473 25.7561 48.0287 25.6253 48.2687 25.743C48.4073 25.8113 48.483 25.9275 48.523 26.0742C48.6659 26.6001 48.823 27.1217 48.953 27.6505C49.1216 28.3333 49.383 28.9841 49.5916 29.6524C49.7473 30.1507 49.8901 30.6519 50.0187 31.1575C50.0315 31.2069 50.0458 31.2562 50.0615 31.3115C50.043 30.4761 50.0273 29.6466 50.0073 28.8185C49.9858 27.9192 49.9587 27.0214 49.9344 26.1222C49.9273 25.8868 50.0501 25.7503 50.2901 25.7227C50.5358 25.6951 50.7287 25.8244 50.7658 26.0423C50.7744 26.0931 50.7729 26.1469 50.7729 26.1992C50.7872 28.0093 50.7901 29.8209 50.8187 31.6311C50.8315 32.449 50.8372 33.2669 50.8444 34.0848C50.8472 34.3463 50.7672 34.4581 50.5658 34.4901C50.3458 34.525 50.2072 34.4204 50.1315 34.1763C49.8715 33.3468 49.6244 32.5143 49.3387 31.6935C49.0101 30.7521 48.7116 29.802 48.5002 28.8258C48.483 28.7488 48.4602 28.6718 48.4402 28.5948C48.433 28.5962 48.4273 28.5977 48.4202 28.5991Z" fill="white"/>
<path d="M26.445 28.5991C26.4307 28.91 26.4093 29.2209 26.4036 29.5318C26.375 31.0529 26.3565 32.5724 26.3622 34.0935C26.3636 34.4087 26.195 34.5714 25.8965 34.5555C25.645 34.5409 25.4908 34.3869 25.5008 34.1298C25.5379 33.1042 25.585 32.0785 25.6236 31.0529C25.6436 30.5313 25.6608 30.0098 25.665 29.4868C25.6736 28.3841 25.6722 27.2815 25.675 26.1774C25.675 26.0001 25.7108 25.8418 25.8865 25.7546C26.0493 25.6747 26.2065 25.6834 26.3593 25.7779C26.4707 25.8461 26.5136 25.9595 26.5479 26.0786C26.6893 26.5682 26.8364 27.0563 26.9536 27.5531C27.0764 28.0732 27.255 28.5759 27.4293 29.0785C27.6779 29.7962 27.8964 30.5226 28.0807 31.3129C28.1136 31.1342 28.075 31.0107 28.0721 30.8843C28.0636 30.4616 28.0607 30.0374 28.0436 29.6146C28.0136 28.8839 28.0207 28.1531 27.9921 27.4224C27.975 26.988 27.965 26.5522 27.9621 26.1178C27.9607 25.8621 28.1021 25.7241 28.3707 25.7139C28.6093 25.7038 28.7793 25.8563 28.795 26.0946C28.7993 26.1701 28.7978 26.2457 28.7978 26.3212C28.8107 28.005 28.8121 29.6873 28.8435 31.371C28.8607 32.2761 28.8578 33.1812 28.8692 34.0862C28.8721 34.3477 28.7921 34.4581 28.5893 34.4886C28.3735 34.5221 28.2307 34.4189 28.1621 34.1865C27.845 33.1201 27.4964 32.064 27.1393 31.0107C26.895 30.2916 26.6964 29.5594 26.525 28.8185C26.5079 28.7415 26.485 28.666 26.465 28.5904C26.4579 28.5948 26.4507 28.5977 26.445 28.5991Z" fill="white"/>
<path d="M40.8689 29.173C40.9875 29.0001 41.1103 28.8287 41.2261 28.6529C41.5918 28.0994 41.9546 27.5416 42.3217 26.9895C42.5489 26.6481 42.8132 26.3343 43.0674 26.0133C43.1203 25.9464 43.1831 25.884 43.2517 25.8331C43.3903 25.7285 43.6103 25.7401 43.7317 25.8491C43.846 25.9522 43.8617 26.1033 43.7617 26.2777C43.546 26.6539 43.3246 27.0273 43.0717 27.3789C42.5932 28.0442 42.1103 28.7067 41.6246 29.3662C41.5489 29.4694 41.5403 29.5435 41.6132 29.6568C41.8603 30.0418 42.056 30.4573 42.2389 30.8742C42.7089 31.9405 43.2989 32.943 43.8388 33.9715C43.9674 34.2156 43.9288 34.4059 43.7203 34.5192C43.5031 34.6369 43.1932 34.5497 43.0989 34.3289C42.7803 33.5836 42.4132 32.8616 42.0218 32.1526C41.6818 31.5367 41.3175 30.9352 40.9904 30.3033C40.8746 30.3919 40.8546 30.5023 40.8604 30.6214C40.8832 31.0674 40.9246 31.5134 40.8918 31.9594C40.8375 32.6785 40.8675 33.3977 40.8646 34.1168C40.8632 34.3754 40.6989 34.525 40.4332 34.5163C40.1875 34.509 40.0218 34.3405 40.0332 34.0935C40.0518 33.7057 40.0647 33.3178 40.0632 32.9284C40.0632 32.5275 40.0318 32.1294 40.0061 31.7299C39.9904 31.48 40.0161 31.2316 40.029 30.9832C40.0904 29.7658 40.0804 28.5469 40.0375 27.3295C40.0232 26.9125 40.019 26.4941 40.0147 26.0757C40.0118 25.8752 40.2032 25.7082 40.4347 25.6995C40.6718 25.6907 40.8675 25.8404 40.8875 26.0597C40.9046 26.2501 40.8789 26.4418 40.8732 26.6321C40.8504 27.45 40.8404 28.268 40.8275 29.0859C40.8304 29.1149 40.8232 29.1469 40.8689 29.173Z" fill="white"/>
<path d="M25.1979 31.772C25.2108 32.5551 25.1651 33.3381 25.1579 34.1211C25.1551 34.4567 24.8165 34.6354 24.5322 34.4596C24.4251 34.3943 24.3722 34.2955 24.3794 34.1691C24.4408 33.2248 24.4708 32.2805 24.4722 31.3347C24.4722 31.1023 24.4851 30.8713 24.4979 30.6389C24.5065 30.4965 24.4494 30.4398 24.3108 30.4413C23.7222 30.4456 23.1337 30.4471 22.5451 30.4471C22.438 30.4471 22.3966 30.4921 22.3866 30.6011C22.3251 31.326 22.3708 32.0495 22.408 32.773C22.4308 33.2248 22.4651 33.6751 22.518 34.124C22.5408 34.326 22.3694 34.5018 22.1494 34.5265C21.888 34.5555 21.6723 34.4117 21.6337 34.1792C21.6251 34.1226 21.6266 34.063 21.6266 34.0049C21.6051 32.8035 21.6509 31.602 21.668 30.4021C21.6794 29.5217 21.7494 28.6398 21.9651 27.7798C22.0909 27.2801 22.2366 26.7832 22.478 26.3241C22.6823 25.9348 22.9823 25.6631 23.4208 25.5876C24.0037 25.4888 24.4894 25.7503 24.7579 26.298C24.9608 26.7106 25.0193 27.1609 25.0593 27.6127C25.1393 28.4859 25.1551 29.3604 25.1736 30.2364C25.1836 30.7507 25.1836 31.2621 25.1979 31.772ZM23.4437 29.7686C23.4437 29.7716 23.4437 29.7745 23.4437 29.7774C23.718 29.7774 23.9908 29.773 24.2651 29.7788C24.4151 29.7817 24.4765 29.7338 24.4737 29.5682C24.4651 29.0234 24.4808 28.4786 24.4279 27.9353C24.3808 27.4544 24.2937 26.9808 24.0494 26.5566C23.8308 26.176 23.5122 26.16 23.2408 26.5014C23.0437 26.7483 22.9037 27.0258 22.8251 27.3324C22.6323 28.0922 22.5594 28.8708 22.4666 29.6466C22.4523 29.7628 22.5237 29.7672 22.6051 29.7672C22.8851 29.7672 23.1637 29.7686 23.4437 29.7686Z" fill="white"/>
<path d="M29.2635 27.2089C29.2635 26.8254 29.2621 26.4433 29.2635 26.0598C29.2649 25.8012 29.4221 25.6501 29.6892 25.6457C29.9421 25.6414 30.1335 25.8055 30.1292 26.051C30.1178 26.7237 30.0849 27.3963 30.0778 28.0689C30.0649 29.1934 29.9949 30.3178 30.0521 31.4452C30.0763 31.9333 30.1121 32.4171 30.2349 32.8907C30.2706 33.0258 30.3178 33.1551 30.3735 33.2829C30.5235 33.6243 30.7863 33.8001 31.1149 33.8045C31.5049 33.8103 31.7677 33.6374 31.9149 33.2742C32.032 32.9851 32.0477 32.6757 32.0734 32.3706C32.1334 31.6471 32.122 30.9207 32.1591 30.1987C32.2006 29.4084 32.1449 28.621 32.1406 27.8336C32.1377 27.2772 32.102 26.7208 32.0777 26.1644C32.0706 25.9886 32.1149 25.8418 32.282 25.7605C32.462 25.6719 32.6377 25.6878 32.8034 25.7983C32.9206 25.8753 32.9534 25.9958 32.9491 26.1309C32.9348 26.5944 32.9177 27.0578 32.9134 27.5227C32.9077 28.2418 32.8934 28.9624 32.9191 29.6815C32.9391 30.267 32.9548 30.8524 32.9434 31.4379C32.9291 32.1062 32.842 32.7628 32.6477 33.4078C32.2591 34.6979 30.7792 34.7444 30.0949 34.1429C29.8692 33.9454 29.7335 33.6824 29.6392 33.3962C29.4964 32.9633 29.4492 32.5129 29.4064 32.0626C29.2978 30.9352 29.3121 29.8035 29.2921 28.6718C29.2835 28.1822 29.2764 27.6956 29.2635 27.2089Z" fill="white"/>
<path d="M51.2244 29.9692C51.2429 29.1803 51.2229 28.3914 51.3101 27.604C51.3515 27.2321 51.4358 26.8719 51.5886 26.5319C51.7429 26.1891 51.9901 25.9334 52.3472 25.8215C52.8315 25.6704 53.3258 25.6326 53.81 25.8201C54.4857 26.0816 54.7957 26.6438 54.9557 27.3193C54.9657 27.3643 54.9729 27.4108 54.9814 27.4559C55.0314 27.6883 54.9729 27.8336 54.7929 27.9237C54.5857 28.0268 54.3257 27.9789 54.1972 27.8162C54.1372 27.7392 54.1243 27.6505 54.1172 27.5561C54.0957 27.2394 54.0329 26.9358 53.8443 26.6714C53.69 26.4549 53.4815 26.3401 53.2186 26.3314C53.0472 26.3256 52.8772 26.3227 52.7072 26.3576C52.4443 26.4113 52.2886 26.5668 52.2101 26.8254C52.0915 27.2133 52.0701 27.6128 52.0501 28.0123C52.0129 28.7299 51.9529 29.452 51.9844 30.1682C52.0244 31.0413 52.0372 31.9188 52.1458 32.7875C52.1758 33.0316 52.2586 33.2597 52.3686 33.479C52.5229 33.787 52.7815 33.8858 53.1043 33.8873C53.4143 33.8887 53.6215 33.7362 53.7743 33.4819C54.0072 33.0897 54.0957 32.651 54.15 32.2064C54.2129 31.6936 54.2286 31.1779 54.2257 30.6607C54.2243 30.511 54.1772 30.4704 54.0329 30.4863C53.71 30.5227 53.3858 30.5488 53.0615 30.5706C52.86 30.5837 52.6715 30.4398 52.6543 30.2713C52.6358 30.1028 52.79 29.9343 53.0058 29.9154C53.5172 29.8733 54.03 29.8355 54.5429 29.8079C54.8343 29.7934 54.9586 29.9285 54.9586 30.2277C54.9586 31.0457 54.9486 31.8636 54.7857 32.6698C54.7043 33.0694 54.5843 33.4558 54.3586 33.8001C54.05 34.2708 53.6186 34.4742 53.0629 34.4597C52.1886 34.4364 51.7886 33.9425 51.5686 33.2204C51.3601 32.5362 51.2429 31.8331 51.2272 31.1154C51.2187 30.7348 51.2244 30.3527 51.2244 29.9692Z" fill="white"/>
<path d="M19.7723 34.4785C19.3895 34.4785 19.0066 34.4799 18.6238 34.477C18.5266 34.4756 18.4295 34.4698 18.3352 34.4494C18.1767 34.416 18.0824 34.3187 18.0867 34.1458C18.0967 33.7637 18.0981 33.3802 18.1124 32.9981C18.1352 32.3546 18.1367 31.711 18.1067 31.066C18.0809 30.5502 18.0638 30.0345 18.1181 29.5188C18.1509 29.2006 18.1338 28.881 18.1267 28.5614C18.1081 27.7551 18.1481 26.9488 18.1952 26.144C18.2067 25.9566 18.2852 25.8563 18.4781 25.8346C18.7495 25.8026 19.0238 25.7895 19.2966 25.7677C19.8366 25.7241 20.3766 25.6791 20.918 25.6355C20.9466 25.6326 20.9751 25.6312 21.0037 25.6297C21.2608 25.6283 21.4494 25.7721 21.4637 25.9784C21.478 26.1818 21.3251 26.3343 21.0566 26.3561C20.8523 26.3735 20.6452 26.3648 20.4394 26.3692C19.9823 26.3793 19.5266 26.3953 19.0695 26.3982C18.9223 26.3997 18.8866 26.4607 18.8881 26.5987C18.8938 27.2379 18.8966 27.8757 18.8881 28.5149C18.8838 28.804 18.8495 29.0931 18.8566 29.3837C18.8666 29.7832 18.8623 29.7861 19.2466 29.7774C19.6238 29.7686 19.9995 29.7497 20.3766 29.741C20.668 29.7338 20.8409 29.8573 20.8437 30.0606C20.8466 30.2611 20.678 30.3962 20.3894 30.4064C19.9609 30.4224 19.5338 30.4064 19.1052 30.4413C18.9409 30.4543 18.8752 30.5168 18.8595 30.681C18.7652 31.6935 18.7952 32.7105 18.7895 33.7245C18.7881 33.8524 18.8438 33.8843 18.9566 33.8771C19.6409 33.8291 20.3266 33.8582 21.0123 33.8465C21.0637 33.8451 21.1166 33.8451 21.1651 33.8553C21.318 33.8901 21.428 33.9758 21.4394 34.1444C21.4508 34.31 21.348 34.3971 21.2094 34.4523C21.1337 34.4829 21.0537 34.4843 20.9737 34.4843C20.5737 34.4843 20.1737 34.4843 19.7738 34.4843C19.7723 34.4814 19.7723 34.4799 19.7723 34.4785Z" fill="white"/>
<path d="M45.216 25.6937C45.7017 25.698 46.1859 25.6821 46.6688 25.6312C46.9588 25.6007 47.1873 25.7591 47.1959 25.9799C47.2045 26.2065 46.9716 26.3852 46.6788 26.362C46.5073 26.3489 46.3374 26.3373 46.1659 26.3358C46.0588 26.3343 46.0159 26.3721 46.0088 26.4854C45.9631 27.1813 45.9688 27.8757 46.0316 28.5702C46.0488 28.7547 46.0431 28.9421 46.0288 29.1266C46.0116 29.3416 45.9974 29.5551 46.0416 29.7672C46.1116 30.1028 46.0774 30.4384 46.0374 30.7725C45.9745 31.2955 46.0559 31.8156 46.0531 32.3372C46.0516 32.7541 46.0974 33.1711 46.1059 33.588C46.1102 33.7464 46.1674 33.7972 46.3116 33.7725C46.4988 33.7391 46.6873 33.7376 46.8759 33.742C47.0959 33.7464 47.2645 33.8873 47.2773 34.0689C47.2916 34.2621 47.163 34.419 46.9345 34.4539C46.5773 34.5091 46.2159 34.4655 45.8559 34.4873C45.4745 34.5105 45.0931 34.5294 44.7103 34.5483C44.6646 34.5512 44.6188 34.5541 44.5731 34.5497C44.3317 34.525 44.1731 34.374 44.1774 34.1735C44.1817 33.9803 44.356 33.8248 44.5917 33.8161C44.7688 33.8088 44.946 33.803 45.1231 33.8146C45.2931 33.8263 45.356 33.7696 45.3502 33.5895C45.3374 33.2016 45.3345 32.8108 45.3488 32.4229C45.376 31.6733 45.3645 30.928 45.2531 30.1856C45.236 30.0738 45.2517 29.9517 45.276 29.8399C45.3517 29.4839 45.2431 29.1353 45.2445 28.7837C45.2474 28.0835 45.3002 27.3818 45.2102 26.6816C45.176 26.4128 45.1774 26.3954 44.916 26.4041C44.8074 26.407 44.7003 26.4172 44.5917 26.4244C44.4546 26.4346 44.3303 26.3939 44.2231 26.3111C44.0631 26.1876 44.0546 25.9668 44.1989 25.8244C44.2946 25.73 44.4131 25.6951 44.5431 25.6951C44.5546 25.6951 44.566 25.6951 44.5774 25.6951C44.7931 25.6937 45.0045 25.6937 45.216 25.6937Z" fill="white"/>
<path d="M34.372 25.6617C35.0119 25.6501 35.7134 25.6428 36.4133 25.5658C36.4948 25.5571 36.5733 25.5731 36.649 25.6007C36.8005 25.6588 36.9005 25.7634 36.9105 25.9333C36.919 26.0801 36.8019 26.2152 36.6362 26.2718C36.5305 26.3082 36.4219 26.298 36.3133 26.298C36.0619 26.2994 35.8105 26.2994 35.5591 26.2994C35.4719 26.2994 35.4219 26.3271 35.4162 26.4273C35.3891 26.9358 35.3319 27.4413 35.3705 27.9541C35.4048 28.4205 35.4105 28.8926 35.3562 29.3619C35.3477 29.4418 35.3434 29.526 35.3591 29.6045C35.4219 29.927 35.4119 30.2481 35.3848 30.5735C35.3077 31.4771 35.3448 32.3822 35.3719 33.2858C35.3805 33.5705 35.3848 33.8553 35.3819 34.1386C35.3791 34.3478 35.2134 34.4872 34.9905 34.4843C34.7748 34.4814 34.6162 34.3449 34.6191 34.1357C34.6348 33.3178 34.6491 32.4999 34.682 31.6834C34.7005 31.2112 34.6477 30.7449 34.6034 30.2771C34.5905 30.1362 34.5977 29.9982 34.6177 29.8616C34.6977 29.3052 34.5677 28.7488 34.6262 28.1939C34.682 27.6592 34.642 27.1275 34.6162 26.5958C34.6048 26.3503 34.5948 26.3416 34.362 26.359C34.1177 26.3764 33.872 26.3881 33.6277 26.4011C33.5234 26.407 33.4206 26.3953 33.3291 26.3416C33.2091 26.2689 33.1306 26.1687 33.1363 26.0176C33.142 25.8723 33.2263 25.7837 33.3448 25.7242C33.4391 25.6762 33.5391 25.6617 33.6448 25.6617C33.8648 25.6631 34.0877 25.6617 34.372 25.6617Z" fill="white"/>
<path d="M14.5853 37.1618C13.9068 37.1618 13.2268 37.1575 12.5482 37.1647C12.3854 37.1662 12.3254 37.1139 12.3297 36.9454C12.3397 36.5299 12.2997 36.5705 12.6997 36.5705C14.0068 36.5691 15.3139 36.5705 16.621 36.5705C16.8581 36.5705 16.8596 36.5735 16.861 36.8132C16.8624 37.1618 16.8624 37.1618 16.521 37.1618C15.8753 37.1618 15.231 37.1618 14.5853 37.1618Z" fill="white"/>
<path d="M14.5811 37.9957C14.1482 37.9957 13.7139 37.9898 13.2811 37.9986C13.1082 38.0029 13.0854 37.9158 13.0882 37.7734C13.0897 37.6368 13.0968 37.5409 13.2754 37.5424C14.1539 37.5482 15.0325 37.5482 15.9096 37.5424C16.0796 37.5409 16.1067 37.6194 16.1067 37.7647C16.1067 37.9172 16.0739 38.0029 15.8982 38C15.4596 37.9898 15.0196 37.9957 14.5811 37.9957Z" fill="white"/>
</g>
<defs>
<clipPath id="clip0">
<rect width="55" height="38" fill="white"/>
</clipPath>
</defs>
</svg>
