<svg width="84" height="84" viewBox="0 0 84 84" fill="none" xmlns="http://www.w3.org/2000/svg">
<g clip-path="url(#clip0)">
<path d="M39.1033 49.2415H27.5171V55.0345H39.1033V49.2415Z" fill="#AABECE"/>
<path d="M47.793 72.4137H18.8276H13.0344V84H70.9656V72.4137H69.5172H60.8276H47.793Z" fill="#5A6470"/>
<path d="M51.1458 21.7241C52.4681 24.47 52.4681 27.6678 51.1458 30.4139H59.3792V21.7241H51.1458Z" fill="#AABECE"/>
<path d="M31.862 26.0691C31.8677 20.4729 36.4037 15.9369 41.9999 15.9312V11.5863H24.6206V49.2414H41.9999V36.207C36.4037 36.2011 31.8677 31.6651 31.862 26.0691Z" fill="#5A6470"/>
<path d="M59.3792 11.5863V21.7242V30.4138V60.8277H60.8275H69.5171H70.9654V30.4138V21.7242V11.5863H59.3792Z" fill="#5A6470"/>
<path d="M37.6553 5.79303H28.9656V11.5861H37.6553V5.79303Z" fill="#AABECE"/>
<path d="M43.4484 5.79305V0H23.1724V5.79305H28.9656H37.6551H43.4484Z" fill="#5A6470"/>
<path d="M69.5174 60.8276H60.8276V72.4139H69.5174V60.8276Z" fill="#AABECE"/>
<path d="M47.7932 66.6206H18.8276V72.4137H47.7932V66.6206Z" fill="#AABECE"/>
<path d="M41.9999 33.3104C45.9992 33.3104 49.2413 30.0683 49.2413 26.069C49.2413 22.0697 45.9992 18.8276 41.9999 18.8276C38.0006 18.8276 34.7585 22.0697 34.7585 26.069C34.7585 30.0683 38.0006 33.3104 41.9999 33.3104Z" fill="#AABECE"/>
<path d="M51.1458 21.7242C48.746 16.7436 42.7631 14.6508 37.7825 17.0505C32.8019 19.4503 30.7091 25.4331 33.1089 30.4138C35.5086 35.3944 41.4915 37.4871 46.4721 35.0874C49.9365 33.4191 52.1378 29.9142 52.1378 26.0691C52.1336 24.5657 51.7946 23.0811 51.1458 21.7242ZM41.9999 33.3103C38.0012 33.3103 34.7585 30.0676 34.7585 26.0689C34.7585 22.0702 38.0012 18.8275 41.9999 18.8275C45.9986 18.8275 49.2413 22.0702 49.2413 26.0689C49.2369 30.0663 45.9971 33.306 41.9999 33.3103Z" fill="#394D5C"/>
</g>
<defs>
<clipPath id="clip0">
<rect width="84" height="84" fill="white"/>
</clipPath>
</defs>
</svg>
