<svg width="81" height="81" viewBox="0 0 81 81" fill="none" xmlns="http://www.w3.org/2000/svg">
<g clip-path="url(#clip0)">
<path d="M68.7463 27.7639C68.5999 27.7639 68.4512 27.7375 68.3065 27.6815C67.6771 27.4385 67.3642 26.7313 67.6072 26.102L70.9347 17.4875C71.0734 17.1284 70.8953 16.7253 70.5359 16.5866L65.3585 14.5866C64.7292 14.3436 64.4163 13.6364 64.6593 13.0071C64.9023 12.3779 65.609 12.0645 66.2386 12.3078L71.4161 14.3078C73.035 14.9332 73.8387 16.7489 73.2133 18.3678L69.8858 26.9823C69.6987 27.4668 69.2364 27.7639 68.7463 27.7639Z" fill="#E0DDE0"/>
<path d="M68.12 11.1657L62.6074 9.03625L65.6424 1.17941C65.973 0.323691 66.9348 -0.102192 67.7905 0.228453L70.204 1.16074C71.0597 1.49139 71.4856 2.45311 71.155 3.30883L68.12 11.1657Z" fill="#E0DDE0"/>
<path d="M59.6196 13.2928L59.1365 13.6233L42.5129 56.6578L50.9828 59.9296L67.6062 16.8951L67.336 16.2736L59.6196 13.2928Z" fill="#E8AE4D"/>
<path d="M69.8947 6.62254L64.3481 4.48C63.541 4.16818 62.6338 4.56986 62.3218 5.37701L60.9849 8.83818L61.2801 9.46941L68.8403 12.3898L69.4547 12.11L70.7917 8.64881C71.1035 7.8415 70.702 6.93436 69.8947 6.62254Z" fill="#E8AE4D"/>
<path d="M59.1174 13.6096L60.9642 8.82343L69.4356 12.0921L67.5888 16.8783L59.1174 13.6096Z" fill="#EDEAED"/>
<path d="M36.0137 15.342L34.5316 16.0437L33.562 57.8825L42.9558 58.1002L43.9256 16.2614L42.4785 15.4612L36.0137 15.342Z" fill="#9BC4F9"/>
<path d="M42.5678 11.6066L44.05 10.8928L44.2252 3.33918C44.266 1.5749 42.8689 0.111365 41.1046 0.0705491L38.1 0.000939673C36.3357 -0.0400349 34.8722 1.35722 34.8314 3.1215L34.6562 10.6751L36.103 11.4876L42.5678 11.6066Z" fill="#9BC4F9"/>
<path d="M34.5278 16.0323L34.6513 10.6621L44.0478 10.8783L43.9243 16.2485L34.5278 16.0323Z" fill="#EDEAED"/>
<path d="M17.783 9.23194V9.23178V9.23194L16.6912 9.08466L9.22972 12.5215L8.63883 13.4438L8.63867 13.4436L8.63883 13.4438L32.8411 65.9894L41.9852 61.7777L17.783 9.23194Z" fill="#E07F84"/>
<path d="M8.63893 13.4438L17.7831 9.23196C17.7831 9.2318 17.7831 9.2318 17.7829 9.23164C17.3933 8.38557 16.8421 7.62382 16.1605 6.98895L9.03523 0.351384C8.46696 -0.177964 7.5429 0.247761 7.57581 1.02359L7.98887 10.7529C8.02843 11.6836 8.24912 12.5976 8.63893 13.4438C8.63893 13.4438 8.63893 13.4436 8.63893 13.4438Z" fill="#89808C"/>
<path d="M38.5227 63.3725L14.3206 10.827L12.1018 11.849L36.304 64.3945C36.5102 64.8418 36.952 65.1053 37.4143 65.1053C37.5853 65.1053 37.7589 65.0693 37.9245 64.993C38.5369 64.7106 38.8049 63.9853 38.5227 63.3725Z" fill="#D84A54"/>
<path d="M48.0872 76.1451L54.7782 32.7446H12.5449L19.236 76.1451C19.6666 78.9385 22.0703 81.0001 24.8966 81.0001H42.4263C45.2526 81.0001 47.6564 78.9385 48.0872 76.1451Z" fill="#D1CCD3"/>
<path d="M54.2083 32.7446L47.5173 76.1451C47.0866 78.9385 44.6827 81.0001 41.8564 81.0001H52.1705C54.9968 81.0001 57.4005 78.9385 57.8312 76.1451L64.5222 32.7446H54.2083Z" fill="#C1BCC4"/>
<path d="M64.7348 38.806H12.3325C10.2604 38.806 8.58057 37.1262 8.58057 35.0541C8.58057 32.9819 10.2604 31.3021 12.3325 31.3021H64.7348C66.8069 31.3021 68.4867 32.9819 68.4867 35.0541C68.4867 37.1262 66.8069 38.806 64.7348 38.806Z" fill="#F7F4F7"/>
<path d="M64.7346 31.3021H58.478V35.0541C58.478 37.1262 56.7982 38.806 54.7261 38.806H64.7348C66.8069 38.806 68.4867 37.1262 68.4867 35.0541C68.4866 32.9819 66.8068 31.3021 64.7346 31.3021Z" fill="#EDEAED"/>
<path d="M52.3273 48.6426H40.0094C38.5756 48.6426 37.4133 49.8049 37.4133 51.2387V64.1231C37.4133 65.5569 38.5756 66.7192 40.0094 66.7192H49.5404L52.3273 48.6426Z" fill="#F4E066"/>
<path d="M48.9702 66.7193H59.2843L62.0712 48.6426H51.7571L48.9702 66.7193Z" fill="#EFD133"/>
</g>
<defs>
<clipPath id="clip0">
<rect width="81" height="81" fill="white"/>
</clipPath>
</defs>
</svg>
