<svg width="86" height="87" viewBox="0 0 86 87" fill="none" xmlns="http://www.w3.org/2000/svg">
<path d="M86 43.5C86 42.9715 85.9906 42.4451 85.9723 41.9213C85.1507 18.6282 66.2259 0 43 0C19.7741 0 0.84925 18.6282 0.0278828 41.9213C0.00940625 42.4451 0 42.9715 0 43.5C0 67.5244 22.0882 85.4214 43 85.4214C64.2907 85.4214 86 67.5244 86 43.5Z" fill="#FF5876"/>
<path d="M43 83.8427C19.7745 83.8427 0.852945 65.214 0.0312422 41.9213C0.0125977 42.4456 0 42.9712 0 43.5C0 67.5244 19.2517 87 43 87C66.7483 87 86 67.5244 86 43.5C86 42.9712 85.9874 42.4456 85.9689 41.9214C85.1471 65.2142 66.2255 83.8427 43 83.8427Z" fill="#E6485D"/>
<path d="M78.8478 41.9213C78.0308 22.6068 62.2938 7.20166 43.0001 7.20166C23.7064 7.20166 7.96939 22.6068 7.15239 41.9213C7.13022 42.4448 7.15223 77.4895 43.0001 77.4895C78.848 77.4895 78.87 42.4448 78.8478 41.9213Z" fill="#E4EEF9"/>
<path d="M43 76.641C23.7065 76.641 7.97201 61.2356 7.15467 41.9213C7.1325 42.445 7.1189 42.9707 7.1189 43.4998C7.1189 63.5469 23.1834 79.7982 43 79.7982C62.8167 79.7982 78.8812 63.547 78.8812 43.5C78.8812 42.9709 78.8674 42.445 78.8454 41.9214C78.0281 61.2358 62.2936 76.641 43 76.641Z" fill="#D5E0F2"/>
<path d="M56.0334 30.7644C55.0107 29.744 53.3639 29.7554 52.3554 30.7898L46.2524 37.0493L46.8657 40.0292L49.7165 40.9899L56.0588 34.4851C57.0673 33.4507 57.056 31.7847 56.0334 30.7644Z" fill="#405B6C"/>
<path d="M39.3185 37.2888L25.4776 24.8111C24.4051 23.8443 22.7612 23.9401 21.8056 25.0251C20.85 26.1098 20.9446 27.773 22.0171 28.7397L36.1306 41.4631L39.0716 40.4708L39.3185 37.2888Z" fill="#405B6C"/>
<path d="M61.4154 60.4644C61.1201 60.4644 60.8234 60.3633 60.5795 60.1562L44.1063 46.1584C43.5566 45.6911 43.485 44.8612 43.9469 44.305C44.4089 43.7485 45.229 43.6763 45.7791 44.1438L62.2523 58.1418C62.8021 58.6091 62.8737 59.439 62.4118 59.9951C62.1546 60.3049 61.7862 60.4644 61.4154 60.4644Z" fill="#86DCFF"/>
<path d="M36.1306 41.4631L38.5594 43.6527L41.6786 42.5805L41.5095 39.2638L39.3187 37.2888C37.7943 38.2154 36.6406 39.7 36.1306 41.4631Z" fill="#2D4456"/>
<path d="M46.2525 37.0494L44.1875 39.1673V43.3247H47.4404L49.7167 40.9901C49.0912 39.278 47.8437 37.8722 46.2525 37.0494Z" fill="#2D4456"/>
<path d="M47.1629 41.921C46.531 40.2167 44.9056 39.0037 43.0001 39.0037C41.0947 39.0037 39.4693 40.2167 38.8374 41.921C38.6553 42.4123 38.8253 46.4175 43.0001 46.4175C47.175 46.4175 47.345 42.4123 47.1629 41.921Z" fill="#FF5876"/>
<path d="M43 44.8391C41.0946 44.8391 39.4698 43.6258 38.8379 41.9215C38.6557 42.4128 38.5554 42.9444 38.5554 43.5001C38.5554 45.9833 40.5453 47.9962 42.9999 47.9962C45.4546 47.9962 47.4443 45.9831 47.4443 43.5001C47.4443 42.9444 47.3441 42.4128 47.162 41.9215C46.5302 43.6257 44.9055 44.8391 43 44.8391Z" fill="#E6485D"/>
<path d="M44.3029 15.9001V11.8174C44.3029 11.0894 43.7195 10.4993 43 10.4993C42.2804 10.4993 41.697 11.0894 41.697 11.8174V15.9001C41.697 16.628 42.2802 17.2181 43 17.2181C43.7197 17.2181 44.3029 16.628 44.3029 15.9001Z" fill="#405B6C"/>
<path d="M41.697 71.0998V75.1825C41.697 75.9105 42.2802 76.5006 43 76.5006C43.7197 76.5006 44.3029 75.9105 44.3029 75.1825V71.0998C44.3029 70.3719 43.7195 69.7817 43 69.7817C42.2804 69.7817 41.697 70.3719 41.697 71.0998Z" fill="#405B6C"/>
<path d="M74.3185 44.8181C75.0382 44.8181 75.6214 44.2279 75.6214 43.5C75.6214 42.772 75.038 42.1819 74.3185 42.1819H70.2827C69.5631 42.1819 68.9797 42.772 68.9797 43.5C68.9797 44.2279 69.5631 44.8181 70.2827 44.8181H74.3185Z" fill="#405B6C"/>
<path d="M11.6816 42.1819C10.9618 42.1819 10.3787 42.772 10.3787 43.5C10.3787 44.2279 10.9618 44.8181 11.6816 44.8181H15.7174C16.4371 44.8181 17.0203 44.2279 17.0203 43.5C17.0203 42.772 16.437 42.1819 15.7174 42.1819H11.6816Z" fill="#405B6C"/>
</svg>
